HIERARCHY
ROOT Hips
{
	OFFSET -0.001795 -0.223333 0.028219
	CHANNELS 6 Xposition Yposition Zposition Zrotation Yrotation Xrotation 
	JOINT LeftUpLeg
	{
		OFFSET 0.069520 -0.091406 -0.006815
		CHANNELS 3 Zrotation Yrotation Xrotation
		JOINT LeftLeg
		{
			OFFSET 0.034277 -0.375199 -0.004496
			CHANNELS 3 Zrotation Yrotation Xrotation
			JOINT LeftFoot
			{
				OFFSET -0.013596 -0.397961 -0.043693
				CHANNELS 3 Zrotation Yrotation Xrotation
				JOINT LeftToe
				{
					OFFSET 0.026358 -0.055791 0.119288
					CHANNELS 3 Zrotation Yrotation Xrotation
					End Site
					{
						OFFSET 0.000000 0.000000 0.000000
					}
				}
			}
		}
	}
	JOINT RightUpLeg
	{
		OFFSET -0.067670 -0.090522 -0.004320
		CHANNELS 3 Zrotation Yrotation Xrotation
		JOINT RightLeg
		{
			OFFSET -0.038290 -0.382569 -0.008850
			CHANNELS 3 Zrotation Yrotation Xrotation
			JOINT RightFoot
			{
				OFFSET 0.015774 -0.398415 -0.042312
				CHANNELS 3 Zrotation Yrotation Xrotation
				JOINT RightToe
				{
					OFFSET -0.025372 -0.048144 0.123348
					CHANNELS 3 Zrotation Yrotation Xrotation
					End Site
					{
						OFFSET 0.000000 0.000000 0.000000
					}
				}
			}
		}
	}
	JOINT Spine
	{
		OFFSET -0.002533 0.108963 -0.026696
		CHANNELS 3 Zrotation Yrotation Xrotation
		JOINT Spine1
		{
			OFFSET 0.005487 0.135180 0.001092
			CHANNELS 3 Zrotation Yrotation Xrotation
			JOINT Spine2
			{
				OFFSET 0.001457 0.052922 0.025425
				CHANNELS 3 Zrotation Yrotation Xrotation
				JOINT Neck
				{
					OFFSET -0.002778 0.213870 -0.042857
					CHANNELS 3 Zrotation Yrotation Xrotation
					JOINT Head
					{
						OFFSET 0.005152 0.064970 0.051349
						CHANNELS 3 Zrotation Yrotation Xrotation
						End Site
						{
							OFFSET 0.000000 0.000000 0.000000
						}
					}
				}
				JOINT LeftShoulder
				{
					OFFSET 0.078845 0.121749 -0.034090
					CHANNELS 3 Zrotation Yrotation Xrotation
					JOINT LeftArm
					{
						OFFSET 0.090977 0.030469 -0.008868
						CHANNELS 3 Zrotation Yrotation Xrotation
						JOINT LeftForeArm
						{
							OFFSET 0.259612 -0.012772 -0.027456
							CHANNELS 3 Zrotation Yrotation Xrotation
							JOINT LeftHand
							{
								OFFSET 0.249234 0.008986 -0.001171
								CHANNELS 3 Zrotation Yrotation Xrotation
								End Site
								{
									OFFSET 0.000000 0.000000 0.000000
								}
							}
						}
					}
				}
				JOINT RightShoulder
				{
					OFFSET -0.081759 0.118833 -0.038615
					CHANNELS 3 Zrotation Yrotation Xrotation
					JOINT RightArm
					{
						OFFSET -0.096012 0.032551 -0.009143
						CHANNELS 3 Zrotation Yrotation Xrotation
						JOINT RightForeArm
						{
							OFFSET -0.253742 -0.013329 -0.021401
							CHANNELS 3 Zrotation Yrotation Xrotation
							JOINT RightHand
							{
								OFFSET -0.255298 0.007772 -0.005559
								CHANNELS 3 Zrotation Yrotation Xrotation
								End Site
								{
									OFFSET 0.000000 0.000000 0.000000
								}
							}
						}
					}
				}
			}
		}
	}
}
MOTION
Frames: 7
Frame Time: 0.050000
0.000000 0.945709 0.000000 -1.861366 -5.323819 1.864052 6.713014 0.128723 4.002826 -3.290477 0.421041 -4.367463 5.267841 12.475144 10.242014 0.000000 0.000000 0.000000 -4.451766 0.148437 0.477451 5.456970 -0.480148 -2.296609 -4.864059 -14.085845 9.362097 0.000000 0.000000 0.000000 5.971059 -0.191906 1.265453 -5.343272 1.907345 -18.642770 -1.387976 7.314966 26.892739 8.078604 -1.686802 -30.877329 0.000000 0.000000 0.000000 -31.399992 -9.295029 2.519596 -41.102342 -4.521490 -4.746713 2.260595 -23.970657 0.506760 0.000000 0.000000 0.000000 36.826430 -1.069665 -1.510411 48.292837 5.066725 -5.497799 -3.637093 26.833182 0.712726 0.000000 0.000000 0.000000 
-0.000103 0.944620 0.000876 -2.115509 -5.324202 2.285798 7.471099 0.093562 3.948359 -3.613976 0.451628 -5.127174 5.438326 12.689341 9.593275 0.000000 0.000000 0.000000 -4.065606 0.169978 -0.115584 5.008086 -0.451307 -1.758751 -4.936216 -14.246872 9.458803 0.000000 0.000000 0.000000 6.777430 -0.143439 0.548802 -6.161469 2.160264 -18.173613 -1.599476 7.783172 26.532195 8.464161 -1.712677 -31.449012 0.000000 0.000000 0.000000 -31.218640 -9.058134 2.135304 -41.592109 -4.433488 -4.742678 3.601648 -24.294607 0.223914 0.000000 0.000000 0.000000 36.030749 -2.568298 -2.369008 50.308399 3.927319 -6.124074 -3.327518 28.658865 0.935587 0.000000 0.000000 0.000000 
-0.000048 0.943882 0.001348 -2.034700 -4.782469 2.581092 7.525332 0.034613 2.707077 -3.915959 0.467024 -3.655580 5.726963 13.179689 9.361553 0.000000 0.000000 0.000000 -3.913197 0.171276 -0.265653 4.574872 -0.423978 -2.425460 -4.814329 -14.278393 11.093786 0.000000 0.000000 0.000000 7.187949 -0.104314 0.041563 -6.744808 2.341165 -18.327612 -1.467658 6.835570 27.036440 8.236465 -1.769648 -31.042116 0.000000 0.000000 0.000000 -30.386697 -9.547115 2.822787 -42.293677 -5.131694 -4.739065 3.939364 -22.833359 0.170041 0.000000 0.000000 0.000000 35.199481 -1.779444 -1.989677 50.706445 3.737604 -6.171260 -3.344420 27.216094 0.828485 0.000000 0.000000 0.000000 
-0.000034 0.943957 0.001760 -2.106388 -4.862965 2.620164 7.725987 0.032826 2.785141 -4.096060 0.483789 -3.650414 5.879706 13.421954 9.234292 0.000000 0.000000 0.000000 -3.844753 0.183215 -0.481362 4.780019 -0.437187 -2.408591 -5.358981 -15.307326 11.326435 0.000000 0.000000 0.000000 7.514588 -0.097338 -0.059278 -7.324565 2.507724 -18.494507 -1.400922 7.290405 27.357880 8.693605 -1.906013 -31.345477 0.000000 0.000000 0.000000 -30.675894 -10.405875 3.218502 -41.683469 -4.410475 -4.842662 3.912505 -23.823142 0.161898 0.000000 0.000000 0.000000 36.205342 -2.227435 -2.163582 50.451639 3.172670 -6.483922 -3.273265 28.267290 0.933988 0.000000 0.000000 0.000000 
-0.000088 0.944371 0.002106 -2.158341 -4.558959 2.456291 8.039885 0.012624 2.478571 -4.347371 0.505106 -3.150582 5.701057 13.127435 9.148354 0.000000 0.000000 0.000000 -3.770624 0.156856 -0.175665 4.579187 -0.427619 -2.347646 -5.089105 -14.744032 10.992748 0.000000 0.000000 0.000000 7.147730 -0.109543 0.114948 -6.666903 2.337882 -17.956672 -1.687032 7.332671 26.826199 8.873550 -2.022552 -30.791868 0.000000 0.000000 0.000000 -30.517669 -10.079524 2.839638 -41.721448 -4.108504 -4.857371 3.136728 -24.424424 0.311884 0.000000 0.000000 0.000000 35.978400 -1.885776 -1.773336 50.468299 2.985725 -6.539129 -3.542811 27.406479 0.830071 0.000000 0.000000 0.000000 
-0.000122 0.944682 0.002449 -2.197645 -4.570301 2.439763 8.015683 0.017700 2.643264 -4.407453 0.510299 -3.265187 5.751893 13.221235 9.214567 0.000000 0.000000 0.000000 -3.989385 0.158359 -0.062327 4.897530 -0.450243 -2.342462 -5.051741 -14.651626 10.854813 0.000000 0.000000 0.000000 6.960913 -0.112379 0.164276 -6.730484 2.352140 -18.088043 -1.558442 7.410524 27.052117 8.830454 -1.949135 -31.108030 0.000000 0.000000 0.000000 -30.044803 -10.103212 2.851840 -42.051232 -4.186423 -4.889722 2.395233 -24.529081 0.468645 0.000000 0.000000 0.000000 36.095838 -1.971688 -1.792849 50.322883 2.821496 -6.629447 -3.300391 27.288210 0.883682 0.000000 0.000000 0.000000 
-0.000208 0.944764 0.002722 -2.220407 -4.477914 2.259527 8.240204 0.012195 2.603899 -4.664097 0.533992 -3.129364 5.814621 13.359410 9.480771 0.000000 0.000000 0.000000 -3.956719 0.138897 0.189463 4.829078 -0.447477 -2.208670 -4.815486 -14.144294 10.469324 0.000000 0.000000 0.000000 6.828752 -0.126680 0.353783 -6.636365 2.334802 -17.879660 -1.658045 7.273149 26.897419 9.055479 -2.125613 -30.773178 0.000000 0.000000 0.000000 -29.994796 -9.841032 2.698572 -42.088099 -3.981244 -4.960813 1.997722 -24.941532 0.563974 0.000000 0.000000 0.000000 35.994565 -1.693909 -1.620770 50.319845 2.590285 -6.688925 -3.166040 27.650036 0.915994 0.000000 0.000000 0.000000 
